<svg width="48" height="48" viewBox="0 0 48 48" fill="none" xmlns="http://www.w3.org/2000/svg">
<path d="M40.1693 40.4129C39.8833 41.8087 38.6551 42.8108 37.2303 42.8108H11.1696C9.74481 42.8108 8.51655 41.8087 8.23064 40.4129L3.43777 17.0144C3.05674 15.1542 4.47792 13.4124 6.37675 13.4124H42.0232C43.922 13.4124 45.3432 15.1542 44.9621 17.0144L40.1693 40.4129Z" fill="url(#paint0_linear_378_261)"/>
<path d="M40.0055 41.2122C39.8149 42.1427 38.9961 42.8108 38.0462 42.8108H10.3537C9.40382 42.8108 8.58498 42.1427 8.39437 41.2122L3.19183 15.8137C2.93781 14.5736 3.88526 13.4124 5.15115 13.4124H43.2488C44.5146 13.4124 45.4621 14.5736 45.2081 15.8137L40.0055 41.2122Z" stroke="#6B6B6B" stroke-width="1.5" stroke-linecap="round" stroke-linejoin="round"/>
<path d="M8.00037 6H41.0893" stroke="#6B6B6B" stroke-width="1.5" stroke-linecap="round" stroke-linejoin="round"/>
<defs>
<linearGradient id="paint0_linear_378_261" x1="24.2" y1="13.4124" x2="24.2" y2="42.8108" gradientUnits="userSpaceOnUse">
<stop stop-color="#FF6C37"/>
<stop offset="1" stop-color="#FFB400"/>
</linearGradient>
</defs>
</svg>
