<svg fill="none" height="48" viewBox="0 0 48 48" width="48" xmlns="http://www.w3.org/2000/svg" xmlns:xlink="http://www.w3.org/1999/xlink"><linearGradient id="a"><stop offset="0" stop-color="#ff6c37"/><stop offset="1" stop-color="#ffb400"/></linearGradient><linearGradient id="b" gradientUnits="userSpaceOnUse" x1="27.2673" x2="27.2673" xlink:href="#a" y1="18.5015" y2="41.2724"/><linearGradient id="c" gradientUnits="userSpaceOnUse" x1="39.6101" x2="39.6101" xlink:href="#a" y1="36.0728" y2="46.2553"/><clipPath id="d"><path d="m1 1h45.6713v46h-45.6713z"/></clipPath><g clip-path="url(#d)"><path d="m44.1611 1.78693h-40.64102c-.95626 0-1.73321.69727-1.73321 1.55392v34.74405c0 .8566.77695 1.5539 1.73321 1.5539h40.64102c.9562 0 1.7332-.6973 1.7332-1.5539v-34.74405c0-.85665-.777-1.55392-1.7332-1.55392z" stroke="#6b6b6b" stroke-linecap="round" stroke-linejoin="round" stroke-width="1.58"/><path d="m27.2673 41.2724c6.288 0 11.3854-5.0974 11.3854-11.3854s-5.0974-11.3855-11.3854-11.3855-11.3855 5.0975-11.3855 11.3855 5.0975 11.3854 11.3855 11.3854z" stroke="#6b6b6b" stroke-linecap="round" stroke-linejoin="round"/><path clip-rule="evenodd" d="m38.6527 29.8869c0 6.288-5.0974 11.3855-11.3854 11.3855s-11.3855-5.0975-11.3855-11.3855 5.0975-11.3854 11.3855-11.3854 11.3854 5.0974 11.3854 11.3854zm-4.4426 0c0 3.8344-3.1084 6.9429-6.9428 6.9429s-6.9428-3.1085-6.9428-6.9429 3.1084-6.9428 6.9428-6.9428 6.9428 3.1084 6.9428 6.9428z" fill="url(#b)" fill-rule="evenodd"/><path d="m36.9095 36.0728 7.2118 6.6141c.8367.767.8965 2.0619.1394 2.8986-.767.8368-2.0619.8965-2.8986.1395l-6.9329-6.3551" fill="url(#c)"/><g stroke="#6b6b6b" stroke-linecap="round" stroke-linejoin="round" stroke-width="1.5"><path d="m36.9095 36.0728 7.2118 6.6141c.8367.767.8965 2.0619.1394 2.8986-.767.8368-2.0619.8965-2.8986.1395l-6.9329-6.3551"/><path d="m27.2673 41.2724c6.288 0 11.3854-5.0974 11.3854-11.3854s-5.0974-11.3855-11.3854-11.3855-11.3855 5.0975-11.3855 11.3855 5.0975 11.3854 11.3855 11.3854z"/><path d="m27.2673 36.8298c3.8344 0 6.9428-3.1084 6.9428-6.9428 0-3.8345-3.1084-6.9429-6.9428-6.9429s-6.9428 3.1084-6.9428 6.9429c0 3.8344 3.1084 6.9428 6.9428 6.9428z"/><path d="m7.63403 13.8298h25.11177"/><path d="m7.41479 18.8103h8.46691"/><path d="m7.03638 24.1992h9.95102"/><path d="m7.03638 8.26163h9.95102"/><path d="m20.9917 27.8948h8.3374"/><path d="m25.5737 32.0784h4.4526"/><path d="m35.9731 13.8298h5.0702"/><path d="m37.6565 24.1992h3.9147"/><path d="m7.03638 32.0784h3.39672"/></g></g></svg>